<svg width="980" height="112" viewBox="0 0 980 112" fill="none" xmlns="http://www.w3.org/2000/svg" role="img" aria-labelledby="title desc">
  <title id="title">GS-Paracosm v3 signal</title><desc id="desc">Local animated profile signal.</desc>
  <defs><linearGradient id="bg" x1="0" y1="0" x2="980" y2="112"><stop stop-color="#EFF6FF"/><stop offset=".46" stop-color="#F5F3FF"/><stop offset="1" stop-color="#ECFDF5"/></linearGradient><linearGradient id="flow" x1="0" y1="0" x2="1" y2="0"><stop stop-color="#60A5FA"/><stop offset=".5" stop-color="#A78BFA"/><stop offset="1" stop-color="#2DD4BF"/></linearGradient><style>.main{font:900 21px 'Segoe UI','Microsoft YaHei',sans-serif;fill:#1E293B}.sub{font:700 12px 'Segoe UI','Microsoft YaHei',sans-serif;fill:#64748B}.chip{font:900 11px 'Segoe UI','Microsoft YaHei',sans-serif;fill:#2563EB}.rail{stroke:url(#flow);stroke-width:3;stroke-linecap:round;stroke-dasharray:44 720;animation:flow 5s linear infinite;filter:drop-shadow(0 0 8px rgba(96,165,250,.38))}.dot{animation:pulse 2s ease-in-out infinite}.float{animation:float 3.4s ease-in-out infinite}@keyframes flow{to{stroke-dashoffset:-764}}@keyframes pulse{0%,100%{opacity:.38}50%{opacity:1}}@keyframes float{0%,100%{transform:translateY(0)}50%{transform:translateY(-3px)}}</style></defs>
  <rect x="1" y="1" width="978" height="110" rx="24" fill="url(#bg)" stroke="#DBEAFE"/>
  <path class="rail" d="M38 82 C172 34 278 92 402 54 S642 28 772 62 S896 84 944 44"/>
  <circle class="dot" cx="50" cy="36" r="7" fill="#2DD4BF"/><text x="70" y="42" class="main">Light Runtime Signal Online</text><text x="70" y="67" class="sub">先看现场，再写结论 · MCU / EtherCAT / FOC / CiA402 / ROS / BLE</text>
  <g class="float" transform="translate(666 27)"><rect width="72" height="28" rx="14" fill="#EFF6FF" stroke="#60A5FA"/><text x="36" y="19" text-anchor="middle" class="chip">DEBUG</text></g><g class="float" transform="translate(752 27)"><rect width="70" height="28" rx="14" fill="#F5F3FF" stroke="#A78BFA"/><text x="35" y="19" text-anchor="middle" class="chip">BUILD</text></g><g class="float" transform="translate(836 27)"><rect width="54" height="28" rx="14" fill="#ECFEFF" stroke="#22D3EE"/><text x="27" y="19" text-anchor="middle" class="chip">FOC</text></g><g class="float" transform="translate(904 27)"><rect width="50" height="28" rx="14" fill="#F0FDFA" stroke="#2DD4BF"/><text x="25" y="19" text-anchor="middle" class="chip">OTA</text></g>
</svg>
